<svg width="17" height="17" viewBox="0 0 17 17" fill="none" xmlns="http://www.w3.org/2000/svg">
<path fill-rule="evenodd" clip-rule="evenodd" d="M12.727 4.24264C12.852 4.36766 12.9223 4.53723 12.9223 4.71405C12.9223 4.89086 12.852 5.06042 12.727 5.18545L8.95578 8.95668C8.83075 9.08171 8.66119 9.15195 8.48438 9.15195C8.30756 9.15195 8.138 9.08171 8.01297 8.95668L4.24173 5.18545C4.11671 5.06042 4.04647 4.89086 4.04647 4.71405C4.04647 4.53723 4.11671 4.36766 4.24173 4.24264C4.36676 4.11762 4.53633 4.04738 4.71314 4.04738C4.88995 4.04738 5.05952 4.11762 5.18454 4.24264L8.48438 7.54247L11.7842 4.24264C11.9092 4.11762 12.0788 4.04738 12.2556 4.04738C12.4324 4.04738 12.602 4.11762 12.727 4.24264Z" fill="#454545"/>
<path fill-rule="evenodd" clip-rule="evenodd" d="M8.01297 8.01376C8.13799 7.88874 8.30756 7.8185 8.48438 7.8185C8.66119 7.8185 8.83076 7.88874 8.95578 8.01376L12.727 11.785C12.852 11.91 12.9223 12.0796 12.9223 12.2564C12.9223 12.4332 12.852 12.6028 12.727 12.7278C12.602 12.8528 12.4324 12.9231 12.2556 12.9231C12.0788 12.9231 11.9092 12.8528 11.7842 12.7278L8.48438 9.42798L5.18454 12.7278C5.05952 12.8528 4.88995 12.9231 4.71314 12.9231C4.53633 12.9231 4.36676 12.8528 4.24173 12.7278C4.11671 12.6028 4.04647 12.4332 4.04647 12.2564C4.04647 12.0796 4.11671 11.91 4.24173 11.785L8.01297 8.01376Z" fill="#454545"/>
</svg>
