<svg width="176" height="68" viewBox="0 0 176 68" fill="none" xmlns="http://www.w3.org/2000/svg">
  <path d="M9.7085 -3.05176e-05C15.0139 1.29385 19.5741 6.75397 19.5741 13.2064C19.5741 26.6942 6.84511 29.1561 6.84511 37.0667C6.84511 37.9079 6.93015 38.5117 7.16257 39.2943C3.97354 38.846 1.27393 35.1363 1.27393 30.8636C1.27393 19.9018 10.8353 17.7724 10.8353 6.36423C10.8353 3.50824 9.7085 -3.05176e-05 9.7085 -3.05176e-05Z" fill="#E4002B"/>
  <path d="M22.5976 15.5919C25.2386 17.8542 26.5746 21.3058 26.5746 24.4993C26.5746 36.0309 13.5268 37.4242 13.5268 41.8366C13.5268 42.3221 13.5728 42.6123 13.6868 42.9542C11.6114 42.1703 10.0254 39.7796 10.0254 37.5432C10.0254 30.4901 20.8163 28.6831 22.5976 15.5919Z" fill="#64A70B"/>
  <path d="M3.18406 3.65823C3.18406 3.65823 3.8215 4.78528 3.8215 6.04645C3.8215 10.0938 0 11.6383 0 15.7517C0 17.6885 1.05253 19.2827 2.54724 20.2064C2.59071 19.862 2.61968 19.5233 2.70661 19.2531C3.60293 16.3927 7.79858 13.2269 7.79858 8.75201C7.79858 6.05904 5.57005 3.85971 3.18406 3.65823Z" fill="#00A3E0"/>
  <path d="M37.9924 36.0249C39.8398 37.689 41.5934 38.6681 44.1217 38.6681C45.5193 38.6681 48.0772 38.0781 48.0772 36.2327C48.0772 35.1642 47.2729 34.6297 45.6995 34.3621L41.2961 33.6475C37.372 33.0216 35.2304 30.9432 35.2304 27.8234C35.2304 22.7115 39.363 20.5997 43.8842 20.5997C47.3957 20.5997 50.8442 22.0258 53.2239 24.6683L49.2072 27.5546C47.8108 25.8628 45.7574 24.8786 43.5271 24.8786C42.3083 24.8786 40.5239 25.6525 40.5239 27.0194C40.5239 28.1483 41.4441 28.7162 43.4666 29.0411L45.4891 29.3685C49.7124 30.051 53.1949 31.3594 53.1949 35.4003C53.1949 41.7633 47.4518 42.9546 43.4949 42.9546C39.8978 42.9546 36.5198 41.7892 33.6318 38.6442L37.9924 36.0249Z" fill="white"/>
  <path d="M66.2185 25.0563C63.124 25.0563 60.8029 27.0195 60.8029 31.7713C60.8029 34.8653 62.0544 38.4919 66.2185 38.4919C70.1451 38.4919 71.6329 35.0447 71.6329 31.7713C71.6329 28.4475 70.1451 25.0563 66.2185 25.0563ZM66.2185 42.9547C59.4663 42.9547 55.5107 37.7187 55.5107 31.7713C55.5107 25.832 59.4663 20.5992 66.2185 20.5992C72.9682 20.5992 76.9282 25.832 76.9282 31.7713C76.9282 37.7187 72.9682 42.9547 66.2185 42.9547Z" fill="white"/>
  <path d="M94.2282 28.2391C93.4824 26.2766 91.6684 25.0583 89.8273 25.0583C86.9091 25.0583 84.5925 27.0214 84.5925 31.7713C84.5925 34.8647 85.8409 38.492 90.0043 38.492C91.4335 38.492 93.5152 37.4197 94.346 35.5195L98.5422 37.5412C96.7256 40.8398 93.5744 42.9497 90.0043 42.9497C83.2515 42.9497 79.2959 37.7207 79.2959 31.7713C79.2959 25.8321 82.9844 20.5992 89.5873 20.5992C93.7514 20.5992 96.4875 22.621 98.4559 26.1286L94.2282 28.2391Z" fill="white"/>
  <path d="M112.23 35.1034L109.613 26.3646H109.553L106.938 35.1034H112.23ZM106.787 21.1921H112.264L120.261 42.3562H114.582L113.511 39.0248H105.686L104.613 42.3562H98.9644L106.787 21.1921Z" fill="white"/>
  <path d="M127.65 30.8197H132.498C134.195 30.7932 135.324 29.9338 135.324 27.9706C135.324 26.0048 134.195 25.1473 132.498 25.1164H127.65V30.8197ZM122.355 21.1925H132.943C137.706 21.1925 140.62 23.3937 140.62 28.1481C140.62 30.8808 138.894 33.082 136.243 33.8533L141.096 42.3566H135.173L131.012 34.7455H127.65V42.3566H122.355V21.1925Z" fill="white"/>
  <path d="M65.7333 50.3818C62.6929 50.3818 60.4128 52.3091 60.4128 56.9784C60.4128 60.0214 61.6398 63.5882 65.7333 63.5882C69.5919 63.5882 71.0563 60.2008 71.0563 56.9784C71.0563 53.7131 69.5919 50.3818 65.7333 50.3818ZM65.7333 67.9723C59.0945 67.9723 55.2095 62.8264 55.2095 56.9784C55.2095 51.143 59.0945 45.9977 65.7333 45.9977C72.3684 45.9977 76.2597 51.143 76.2597 56.9784C76.2597 62.8264 72.3684 67.9723 65.7333 67.9723Z" fill="white"/>
  <path d="M113.962 46.5853H121.589L125.269 62.0351H125.323L129.126 46.5853H136.658V67.373H131.752V51.2326H131.693L127.576 67.373H122.986L118.753 51.2326H118.696V67.373H113.962V46.5853Z" fill="white"/>
  <path d="M162.797 56.1871H167.558C169.219 56.1519 170.331 55.3063 170.331 53.3771C170.331 51.4541 169.219 50.611 167.558 50.577H162.797V56.1871ZM157.593 46.7249H167.997C172.67 46.7249 175.537 48.8827 175.537 53.5515C175.537 56.2419 173.84 58.4035 171.238 59.1622L176 67.5162H170.187L166.1 60.038H162.797V67.5162H157.593V46.7249Z" fill="white"/>
  <path d="M139.611 67.4111V46.6185H154.915V50.6489H144.807V54.4456H154.244V58.4765H144.807V63.3795H155.791V67.4111H139.611Z" fill="white"/>
  <path d="M78.835 67.3342H92.23V62.9538H84.1625V46.4736H78.835V67.3342Z" fill="white"/>
  <path d="M40.9642 50.4708H44.8802C47.0621 50.4708 47.9823 51.5941 47.9823 53.6373C47.9823 55.2209 47.1988 56.749 45.0131 56.749H40.9642V50.4708ZM35.7021 67.2659H40.9642V60.6899H44.7473C51.7314 60.6899 53.2463 56.4424 53.2463 53.6757C53.2463 49.5717 51.2243 46.6697 45.7557 46.6697H35.7021V67.2659Z" fill="white"/>
  <path d="M98.3669 67.3342H103.664V57.6636L111.45 46.5926H105.447L101.015 53.7605L96.5806 46.5926H90.5771L98.3669 57.6636V67.3342Z" fill="white"/>
  <path d="M41.4135 42.727C38.897 42.327 36.6673 41.2797 34.8453 39.6425L33.7715 38.6774L35.8724 37.4304L37.9732 36.1833L38.7972 36.8357C41.4023 38.8982 45.2975 39.333 47.3269 37.7878C48.5242 36.8761 48.42 35.2945 47.123 34.6922C46.7592 34.5232 44.9896 34.144 43.1902 33.8493C39.5268 33.2491 38.0307 32.7018 36.8638 31.5355C35.7584 30.4305 35.4051 29.4888 35.4041 27.6448C35.4023 24.2131 37.5543 21.777 41.2964 20.9747C44.9973 20.1813 49.4009 21.3305 52.2103 23.8229L53.1218 24.6315L51.1576 26.0297L49.1935 27.4279L48.4557 26.7214C46.3219 24.6766 42.9045 24.1912 41.1335 25.6806C40.6313 26.1032 40.4958 26.3842 40.4958 27.0033C40.4958 28.3626 41.0911 28.6767 45.0355 29.3989C49.9216 30.2935 51.6322 31.1617 52.5784 33.2281C53.0397 34.2354 53.0969 34.5984 53.0157 36.0016C52.7713 40.2219 49.8173 42.5031 44.2049 42.8053C43.2588 42.8562 42.0031 42.8213 41.4143 42.7277L41.4135 42.727Z" fill="white"/>
  <path d="M64.1665 42.6973C63.5409 42.587 62.3368 42.1638 61.4906 41.757C54.8316 38.5553 53.5651 28.4531 59.179 23.3149C63.1811 19.6519 70.281 19.9374 73.8693 23.9056C74.9657 25.118 75.9742 26.9889 76.4017 28.6034C76.7958 30.0918 76.8437 33.2097 76.4947 34.6559C75.8611 37.2806 73.8225 40.1761 71.7555 41.3869C69.7603 42.5557 66.5284 43.1138 64.1664 42.6972L64.1665 42.6973ZM68.4562 38.133C71.1384 36.9151 72.432 32.6023 71.2564 28.7977C70.3988 26.0222 68.083 24.6014 65.2125 25.0893C63.4029 25.3968 62.3493 26.1569 61.5403 27.7383C60.9807 28.832 60.9033 29.2132 60.8349 31.2103C60.7086 34.8968 61.6275 37.0073 63.7986 38.0178C65.1685 38.6554 67.1953 38.7055 68.4563 38.1329L68.4562 38.133Z" fill="white"/>
  <path d="M88.2636 42.7076C83.0662 41.952 79.4315 37.4306 79.4424 31.7342C79.4484 28.5079 80.4837 25.7734 82.4985 23.6616C84.3842 21.6855 86.6966 20.7332 89.5855 20.7432C92.3028 20.7527 94.2978 21.5141 96.0503 23.2108C97.0331 24.1623 98.3973 25.9324 98.2505 26.0656C98.2106 26.1018 97.324 26.5582 96.2803 27.0799L94.3826 28.0284L93.6619 27.0552C92.6168 25.6437 91.3991 25.0262 89.6984 25.045C87.3882 25.0705 85.7233 26.3083 84.9432 28.58C84.4253 30.0889 84.4426 33.225 84.9779 34.8581C85.9974 37.9682 89.2094 39.4189 91.9747 38.0181C92.9373 37.5305 94.3042 36.2276 94.3042 35.7977C94.3042 35.64 97.9073 37.2834 98.2538 37.5992C98.4429 37.7715 97.319 39.227 96.1904 40.2715C94.7611 41.5943 93.2593 42.3686 91.4916 42.6942C90.1272 42.9455 89.9044 42.9464 88.2634 42.7078V42.7078L88.2636 42.7076Z" fill="white"/>
  <path d="M99.1197 42.243C99.1211 42.2142 100.847 37.5287 102.954 31.8308L106.787 21.4706L109.505 21.4125L112.223 21.3544L116.068 31.563C118.183 37.1778 119.955 41.8898 120.006 42.0333C120.078 42.234 119.466 42.2949 117.378 42.2949H114.657L114.156 40.6729L113.656 39.0509H109.611H105.567L105.055 40.6729L104.544 42.2949H101.83C100.338 42.2949 99.1184 42.2714 99.1196 42.2426L99.1197 42.243ZM112.232 34.813C111.112 30.8884 109.698 26.3889 109.586 26.3889C109.475 26.3889 107.58 32.3668 106.915 34.813C106.824 35.1483 107.049 35.1792 109.576 35.1792C112.105 35.1792 112.328 35.1485 112.232 34.813H112.232Z" fill="white"/>
  <path d="M122.357 31.8307V21.3661H128.616C134.364 21.3661 134.99 21.4017 136.285 21.8013C138.092 22.3593 139.485 23.6677 140.068 25.3549C140.635 26.9952 140.586 29.3268 139.957 30.6316C139.401 31.7849 137.927 33.1691 136.891 33.5109C136.497 33.6407 136.176 33.7888 136.176 33.84C136.176 33.8912 137.159 35.6498 138.361 37.748C139.562 39.8462 140.609 41.7278 140.686 41.9292C140.816 42.2669 140.608 42.2952 138.03 42.2917L135.233 42.2878L133.14 38.4206L131.046 34.5534L129.319 34.5525L127.591 34.5516V38.4235V42.2955H124.974H122.357V31.8309L122.357 31.8307ZM133.33 30.7938C133.78 30.6895 134.392 30.36 134.691 30.0615C135.178 29.5747 135.234 29.3587 135.234 27.9587C135.234 26.5521 135.179 26.3442 134.682 25.8468C133.982 25.1475 132.931 24.9446 129.947 24.9331L127.591 24.924V27.9587V30.9935L130.051 30.9885C131.404 30.9858 132.88 30.8982 133.33 30.7939L133.33 30.7938Z" fill="white"/>
  <path d="M113.981 56.9451V46.6899H117.728C120.535 46.6899 121.498 46.7555 121.569 46.9516C121.621 47.0954 122.45 50.533 123.411 54.5906C124.371 58.6482 125.215 61.9681 125.285 61.9681C125.355 61.9681 126.256 58.5314 127.286 54.3309L129.161 46.6937L132.877 46.6918L136.594 46.6899V56.9451V67.2003H134.188H131.783L131.728 59.0904L131.673 50.9805L129.601 59.0904L127.528 67.2003H125.256C124.007 67.2003 122.984 67.1617 122.984 67.1146C122.984 66.8564 118.971 51.7495 118.809 51.3991C118.687 51.1346 118.611 53.9649 118.602 59.0906L118.588 67.2005H116.285H113.982V56.9453L113.981 56.9451Z" fill="white"/>
  <path d="M139.737 57.0492V46.689H147.274H154.811V48.6772V50.6655H149.786H144.761V52.5492V54.4328H149.472H154.183V56.4211V58.4093H149.472H144.761V60.9209V63.4325H150.205H155.649V65.4207V67.409H147.692H139.736V57.0488L139.737 57.0492Z" fill="white"/>
  <path d="M157.74 57.1436V46.8773L164.283 46.9407C170.598 47.0018 170.863 47.0208 171.873 47.4852C174.194 48.5519 175.352 50.5038 175.377 53.3876C175.398 55.8766 174.317 57.6379 172.116 58.6983L171.16 59.159L173.453 63.1946C174.715 65.4142 175.747 67.2708 175.747 67.3204C175.747 67.37 174.498 67.4085 172.972 67.406L170.198 67.4013L168.184 63.6908L166.17 59.9804L164.467 59.9196L162.765 59.8588V63.6346V67.4103H160.253H157.74V57.144L157.74 57.1436ZM168.792 55.9974C169.826 55.5837 170.303 54.7629 170.303 53.397C170.303 51.0159 169.367 50.4572 165.378 50.4572H162.766V53.3873V56.3175H165.378C167.235 56.3175 168.223 56.2248 168.792 55.9974L168.792 55.9974Z" fill="white"/>
  <path d="M98.492 62.4374L98.491 57.6759L95.3246 53.176C93.583 50.7011 91.8323 48.229 91.434 47.6821L90.71 46.688H93.6384H96.5669L98.7336 50.2377C99.9253 52.1901 100.947 53.7902 101.005 53.7934C101.063 53.7968 102.091 52.1993 103.29 50.2437L105.471 46.688H108.387H111.304L110.591 47.6821C110.199 48.2289 108.448 50.7122 106.698 53.2006L103.518 57.7248V62.4617V67.1987H101.005H98.4925L98.4916 62.4372L98.492 62.4374Z" fill="white"/>
  <path d="M79.0191 56.8415V46.4812H81.5316H84.0441V54.7485V63.0159H88.1269H92.2097V65.1088V67.2017H85.6144H79.019V56.8415H79.0191Z" fill="white"/>
  <path d="M62.8582 67.5232C61.1052 67.0406 59.8877 66.3142 58.4852 64.9141C56.3286 62.7613 55.3599 60.2918 55.3599 56.9475C55.3599 51.2723 58.8585 46.9944 64.1283 46.227C69.6243 45.4262 74.3735 48.5724 75.7723 53.9404C76.1699 55.4662 76.1758 58.5878 75.7838 60.0595C74.7952 63.7725 72.0596 66.5858 68.5229 67.5269C67.1508 67.892 64.1902 67.8901 62.8582 67.5231V67.5232ZM67.8176 63.2517C68.9589 62.7283 69.7655 61.8751 70.4135 60.5055C70.9018 59.4735 70.9581 59.1053 70.9581 56.9475C70.9581 54.8772 70.8907 54.3942 70.4758 53.4941C69.4836 51.3413 68.0206 50.3839 65.7068 50.3732C62.0612 50.3562 60.1999 52.8997 60.4243 57.5917C60.497 59.111 60.622 59.6325 61.1901 60.786C61.8959 62.2192 62.6043 62.8861 63.92 63.3561C65.0231 63.7502 66.8362 63.7016 67.8175 63.2516L67.8176 63.2517Z" fill="white"/>
  <path d="M35.8887 56.9263V46.652L41.9081 46.7386C48.8238 46.838 49.4469 46.9574 51.1811 48.5162C52.5363 49.7341 53.0574 51.1079 53.0574 53.4628C53.0574 55.8147 52.6338 56.9777 51.2866 58.3244C49.5933 60.0171 48.4692 60.3614 44.3162 60.4594L40.9138 60.5396V63.8703V67.201H38.4013H35.8888V56.9267L35.8887 56.9263ZM46.5468 56.4714C47.5406 55.9608 47.9279 55.1546 47.9279 53.5967C47.9279 52.4677 47.8344 52.0365 47.489 51.5714C46.7716 50.6056 46.2593 50.4637 43.4787 50.4603L40.9138 50.457V53.5964V56.7359L43.4787 56.7325C45.0971 56.7307 46.2292 56.6341 46.5467 56.4709L46.5468 56.4714Z" fill="white"/>
  </svg>
  